<?xml version="1.0" encoding="utf-8"?>
<!-- Generator: Adobe Illustrator 23.0.1, SVG Export Plug-In . SVG Version: 6.00 Build 0)  -->
<svg version="1.1" id="Layer_1" xmlns="http://www.w3.org/2000/svg" xmlns:xlink="http://www.w3.org/1999/xlink" x="0px" y="0px"
	 viewBox="0 0 134.6 36.6" style="enable-background:new 0 0 134.6 36.6;" xml:space="preserve">
<style type="text/css">
	.st0{stroke:#FFFFFF;stroke-width:0.25;}
</style>
<g>
	<g>
		<g>
			<defs>
				<path id="SVGID_1_" d="M38.1,21.4c-1.4,5.9-4.7,11-7.4,11.5c-2.7,0.5-3.8-3.8-2.5-9.7c1.4-5.9,4.7-11,7.4-11.5
					C38.3,11.2,39.4,15.6,38.1,21.4z"/>
			</defs>
			<use xlink:href="#SVGID_1_"  style="overflow:visible;fill:#F36D24;"/>
			<clipPath id="SVGID_2_">
				<use xlink:href="#SVGID_1_"  style="overflow:visible;"/>
			</clipPath>
			<use xlink:href="#SVGID_1_"  style="overflow:visible;fill:none;stroke:#FFFFFF;stroke-width:0.25;"/>
		</g>
	</g>
</g>
<g>
	<g>
		<g>
			<defs>
				<path id="SVGID_3_" d="M26.7,19.9c-2.2,7.5-6.5,13.3-9.4,13.1c-3-0.2-3.5-6.5-1.3-13.9c2.2-7.5,6.5-13.3,9.4-13.1
					C28.3,6.2,28.9,12.5,26.7,19.9z"/>
			</defs>
			<use xlink:href="#SVGID_3_"  style="overflow:visible;fill:#F36D24;"/>
			<clipPath id="SVGID_4_">
				<use xlink:href="#SVGID_3_"  style="overflow:visible;"/>
			</clipPath>
			<use xlink:href="#SVGID_3_"  style="overflow:visible;fill:none;stroke:#FFFFFF;stroke-width:0.25;"/>
		</g>
	</g>
</g>
<g>
	<g>
		<g>
			<defs>
				<path id="SVGID_5_" d="M13.8,17.8c-3.1,9.1-8.2,15.9-11.4,15.2c-3.2-0.7-3.2-8.7-0.1-17.7C5.4,6.1,10.5-0.7,13.7,0.1
					C16.9,0.8,17,8.7,13.8,17.8z"/>
			</defs>
			<use xlink:href="#SVGID_5_"  style="overflow:visible;fill:#F36D24;"/>
			<clipPath id="SVGID_6_">
				<use xlink:href="#SVGID_5_"  style="overflow:visible;"/>
			</clipPath>
			<use xlink:href="#SVGID_5_"  style="overflow:visible;fill:none;stroke:#FFFFFF;stroke-width:0.25;"/>
		</g>
	</g>
</g>
<g>
	<path class="st0" d="M45.2,16.8v-2.4h2.1v2.4H45.2z M45.2,31.5V19.1h2.1v12.4H45.2z"/>
</g>
<g>
	<path class="st0" d="M59.1,26.9l2.1,0.3c-0.2,1.4-0.8,2.5-1.7,3.4s-2.1,1.2-3.4,1.2c-1.7,0-3.1-0.6-4.1-1.7c-1-1.1-1.5-2.7-1.5-4.8
		c0-1.3,0.2-2.5,0.7-3.5s1.1-1.8,2-2.3c0.9-0.5,1.9-0.8,3-0.8c1.3,0,2.5,0.3,3.3,1c0.9,0.7,1.4,1.7,1.6,2.9l-2,0.3
		c-0.2-0.8-0.5-1.5-1-1.9c-0.5-0.4-1.1-0.6-1.8-0.6c-1.1,0-1.9,0.4-2.6,1.1c-0.7,0.8-1,2-1,3.6c0,1.7,0.3,2.9,1,3.6
		c0.6,0.8,1.5,1.1,2.5,1.1c0.8,0,1.5-0.3,2.1-0.8S58.9,28,59.1,26.9z"/>
</g>
<g>
	<path class="st0" d="M69.6,36.3l0.4-1.8c0.4,0.1,0.8,0.2,1,0.2c0.4,0,0.7-0.1,1-0.4c0.2-0.3,0.3-1,0.3-2.1V19.1h2.1v13.1
		c0,1.5-0.2,2.6-0.6,3.2c-0.5,0.8-1.3,1.2-2.5,1.2C70.7,36.5,70.1,36.4,69.6,36.3z M72.3,16.8v-2.4h2.1v2.4H72.3z"/>
</g>
<g>
	<path class="st0" d="M132.3,27.5l2.2,0.3c-0.3,1.3-1,2.3-1.9,3c-0.9,0.7-2.1,1.1-3.6,1.1c-1.8,0-3.3-0.6-4.3-1.7
		c-1.1-1.1-1.6-2.7-1.6-4.7c0-2.1,0.5-3.7,1.6-4.9c1.1-1.2,2.5-1.7,4.2-1.7c1.7,0,3,0.6,4.1,1.7s1.6,2.7,1.6,4.8c0,0.1,0,0.3,0,0.6
		h-9.3c0.1,1.4,0.5,2.4,1.2,3.1c0.7,0.7,1.6,1.1,2.6,1.1c0.8,0,1.4-0.2,2-0.6C131.6,29,132,28.4,132.3,27.5z M125.4,24.1h6.9
		c-0.1-1-0.4-1.8-0.8-2.4c-0.7-0.8-1.5-1.2-2.6-1.2c-1,0-1.8,0.3-2.4,1S125.5,23,125.4,24.1z"/>
</g>
<g>
	<path class="st0" d="M104.9,31.5v-2.4h2.4v2.4H104.9z"/>
</g>
<g>
	<path class="st0" d="M68.7,29.6l0.3,1.9c-0.6,0.1-1.1,0.2-1.6,0.2c-0.8,0-1.4-0.1-1.8-0.4c-0.4-0.2-0.7-0.6-0.9-1
		c-0.2-0.4-0.3-1.2-0.3-2.5v-7.1H63v-1.6h1.5V16l2.1-1.3v4.3h2.1v1.6h-2.1V28c0,0.6,0,1,0.1,1.2c0.1,0.2,0.2,0.3,0.4,0.4
		s0.4,0.2,0.7,0.2C68.1,29.7,68.4,29.6,68.7,29.6z"/>
</g>
<g>
	<path class="st0" d="M77.2,25.3c0-2.3,0.6-4,1.9-5.1c1.1-0.9,2.4-1.4,3.9-1.4c1.7,0,3.1,0.6,4.2,1.7c1.1,1.1,1.6,2.7,1.6,4.6
		c0,1.6-0.2,2.9-0.7,3.8c-0.5,0.9-1.2,1.6-2.1,2.1c-0.9,0.5-1.9,0.8-3,0.8c-1.7,0-3.1-0.6-4.2-1.7C77.7,29,77.2,27.4,77.2,25.3z
		 M79.4,25.3c0,1.6,0.3,2.8,1,3.6C81.1,29.6,82,30,83,30c1,0,1.9-0.4,2.6-1.2c0.7-0.8,1-2,1-3.6c0-1.5-0.3-2.7-1-3.5
		c-0.7-0.8-1.6-1.2-2.6-1.2c-1.1,0-1.9,0.4-2.6,1.2C79.7,22.5,79.4,23.7,79.4,25.3z"/>
</g>
<g>
	<path class="st0" d="M93.4,31.5h-2V14.3h2.1v6.1c0.9-1.1,2-1.7,3.4-1.7c0.8,0,1.5,0.2,2.2,0.5c0.7,0.3,1.2,0.7,1.7,1.3s0.8,1.2,1,2
		c0.2,0.8,0.4,1.6,0.4,2.5c0,2.1-0.5,3.8-1.6,4.9c-1.1,1.2-2.3,1.7-3.8,1.7c-1.5,0-2.6-0.6-3.5-1.8V31.5z M93.4,25.2
		c0,1.5,0.2,2.6,0.6,3.2c0.7,1.1,1.6,1.6,2.7,1.6c0.9,0,1.7-0.4,2.4-1.2c0.7-0.8,1-2,1-3.6c0-1.6-0.3-2.8-1-3.6
		c-0.6-0.8-1.4-1.2-2.3-1.2c-0.9,0-1.7,0.4-2.4,1.2C93.7,22.5,93.4,23.7,93.4,25.2z"/>
</g>
<g>
	<path class="st0" d="M112.3,31.5h-2V14.3h2.1v6.1c0.9-1.1,2-1.7,3.4-1.7c0.8,0,1.5,0.2,2.2,0.5c0.7,0.3,1.2,0.7,1.7,1.3
		s0.8,1.2,1,2c0.2,0.8,0.4,1.6,0.4,2.5c0,2.1-0.5,3.8-1.6,4.9c-1.1,1.2-2.3,1.7-3.8,1.7c-1.5,0-2.6-0.6-3.5-1.8V31.5z M112.3,25.2
		c0,1.5,0.2,2.6,0.6,3.2c0.7,1.1,1.6,1.6,2.7,1.6c0.9,0,1.7-0.4,2.4-1.2c0.7-0.8,1-2,1-3.6c0-1.6-0.3-2.8-1-3.6
		c-0.6-0.8-1.4-1.2-2.3-1.2c-0.9,0-1.7,0.4-2.4,1.2C112.7,22.5,112.3,23.7,112.3,25.2z"/>
</g>
</svg>
